<svg xmlns="http://www.w3.org/2000/svg" viewBox="0 0 48 48"><title>bullet list 70</title><g fill="#000" class="nc-icon-wrapper"><path d="M44,5H20c-0.6,0-1,0.4-1,1v4c0,0.6,0.4,1,1,1h24c0.6,0,1-0.4,1-1V6C45,5.4,44.6,5,44,5z" data-color="color-2"/><path d="M44,21H20c-0.6,0-1,0.4-1,1v4c0,0.6,0.4,1,1,1h24c0.6,0,1-0.4,1-1v-4C45,21.4,44.6,21,44,21z" data-color="color-2"/><path d="M44,37H20c-0.6,0-1,0.4-1,1v4c0,0.6,0.4,1,1,1h24c0.6,0,1-0.4,1-1v-4C45,37.4,44.6,37,44,37z" data-color="color-2"/><path fill="#000" d="M12,3H4C3.4,3,3,3.4,3,4v8c0,0.6,0.4,1,1,1h8c0.6,0,1-0.4,1-1V4C13,3.4,12.6,3,12,3z"/><path fill="#000" d="M12,19H4c-0.6,0-1,0.4-1,1v8c0,0.6,0.4,1,1,1h8c0.6,0,1-0.4,1-1v-8C13,19.4,12.6,19,12,19z"/><path fill="#000" d="M12,35H4c-0.6,0-1,0.4-1,1v8c0,0.6,0.4,1,1,1h8c0.6,0,1-0.4,1-1v-8C13,35.4,12.6,35,12,35z"/></g></svg>