<svg xmlns="http://www.w3.org/2000/svg" viewBox="0 0 48 48"><title>c info</title><g class="nc-icon-wrapper" fill="#000000"><path d="M24,1A23,23,0,1,0,47,24,23.026,23.026,0,0,0,24,1Zm3.682,36.163a26.017,26.017,0,0,1-2.871,1.006,7.44,7.44,0,0,1-1.836.283,3.11,3.11,0,0,1-2.344-.811,2.777,2.777,0,0,1-.781-2,5.847,5.847,0,0,1,.078-.939q.076-.489.254-1.232l2.063-8.31c.1-.456.2-.944.3-1.467a7.358,7.358,0,0,0,.147-1.329,2.121,2.121,0,0,0-.361-1.456,2.142,2.142,0,0,0-1.472-.362,6.376,6.376,0,0,0-1.14.137q-.713.137-1.082.234l.293-1.25a19.182,19.182,0,0,1,2.733-1.016,7.719,7.719,0,0,1,1.913-.332,3.074,3.074,0,0,1,2.323.763,2.863,2.863,0,0,1,.723,2.053,7.979,7.979,0,0,1-.079.958,10.009,10.009,0,0,1-.234,1.213l-2.076,8.309q-.193.762-.339,1.5a6.447,6.447,0,0,0-.146,1.2,1.907,1.907,0,0,0,.5,1.525,2.52,2.52,0,0,0,1.606.41,8.048,8.048,0,0,0,1.061-.1,5.41,5.41,0,0,0,1.061-.234ZM26.5,14A2.5,2.5,0,1,1,29,11.5,2.5,2.5,0,0,1,26.5,14Z" fill="#000000"/></g></svg>