<svg xmlns="http://www.w3.org/2000/svg" viewBox="0 0 48 48"><title>cloud sun 19</title><g class="nc-icon-wrapper" fill="#000000"><path data-color="color-2" d="M28,6c-0.553,0-1-0.448-1-1V2c0-0.552,0.447-1,1-1s1,0.448,1,1v3C29,5.552,28.553,6,28,6z"/> <path data-color="color-2" d="M37.899,10.101c-0.391-0.391-0.39-1.024,0-1.414l2.121-2.121c0.39-0.39,1.023-0.391,1.414,0 c0.391,0.391,0.39,1.024,0,1.414l-2.121,2.121C38.923,10.491,38.29,10.491,37.899,10.101z"/> <path data-color="color-2" d="M18.101,10.101c0.391-0.391,0.39-1.024,0-1.414l-2.121-2.121c-0.39-0.39-1.023-0.391-1.414,0 c-0.391,0.391-0.39,1.024,0,1.414l2.121,2.121C17.077,10.491,17.71,10.491,18.101,10.101z"/> <path data-color="color-2" d="M42,20c0-0.553,0.448-1,1-1h3c0.552,0,1,0.447,1,1s-0.448,1-1,1h-3 C42.448,21,42,20.553,42,20z"/> <path fill="#000000" d="M36,25c-2.099,0-4.164,0.629-5.946,1.793C27.899,20.96,22.312,17,16,17C7.729,17,1,23.729,1,32 s6.729,15,15,15h20c6.065,0,11-4.935,11-11S42.065,25,36,25z"/> <path data-color="color-2" d="M31.001,24.027C32.585,23.351,34.281,23,36,23c0.859,0,1.696,0.088,2.509,0.248 C38.83,22.207,39,21.118,39,20c0-6.065-4.935-11-11-11c-4.275,0-8.059,2.46-9.871,6.141C23.587,15.839,28.418,19.172,31.001,24.027z "/></g></svg>