<svg xmlns="http://www.w3.org/2000/svg" viewBox="0 0 48 48"><title>cloud sun 17</title><g fill="#000" class="nc-icon-wrapper"><path d="M35.7,20.005C35.801,20.002,35.9,20,36,20c3.598,0,6.808,1.395,9.14,3.681 C46.344,21.68,47,19.391,47,17c0-7.168-5.832-13-13-13c-3.976,0-7.711,1.857-10.151,4.892C29.25,10.589,33.62,14.604,35.7,20.005z" data-color="color-2"/><path fill="#000" d="M36,22c-0.574,0-1.13,0.084-1.673,0.2C32.266,14.967,25.691,10,18,10C8.626,10,1,17.626,1,27s7.626,17,17,17 h18c6.168,0,11-4.832,11-11S42.168,22,36,22z"/></g></svg>