<svg xmlns="http://www.w3.org/2000/svg" viewBox="0 0 48 48"><title>collection</title><g fill="#000" class="nc-icon-wrapper"><path fill="#000" d="M43,1H5C3.895,1,3,1.895,3,3v42c0,1.105,0.895,2,2,2h38c1.105,0,2-0.895,2-2V3C45,1.895,44.105,1,43,1z M10,36c-1.105,0-2-0.895-2-2c0-1.105,0.895-2,2-2s2,0.895,2,2C12,35.105,11.105,36,10,36z M10,26c-1.105,0-2-0.895-2-2 c0-1.105,0.895-2,2-2s2,0.895,2,2C12,25.105,11.105,26,10,26z M10,16c-1.105,0-2-0.895-2-2c0-1.105,0.895-2,2-2s2,0.895,2,2 C12,15.105,11.105,16,10,16z M40,31c0,0.552-0.447,1-1,1H18c-0.553,0-1-0.448-1-1V17c0-0.552,0.447-1,1-1h21c0.553,0,1,0.448,1,1V31 z"/><path d="M35,22H22c-0.553,0-1-0.448-1-1s0.447-1,1-1h13c0.553,0,1,0.448,1,1S35.553,22,35,22z" data-color="color-2"/><path d="M30,28h-8c-0.553,0-1-0.448-1-1s0.447-1,1-1h8c0.553,0,1,0.448,1,1S30.553,28,30,28z" data-color="color-2"/></g></svg>