<svg xmlns="http://www.w3.org/2000/svg" viewBox="0 0 48 48"><title>command</title><g fill="#000" class="nc-icon-wrapper"><path fill="#000" d="M10,18h28c4.411,0,8-3.589,8-8s-3.589-8-8-8s-8,3.589-8,8v4H18v-4c0-4.411-3.589-8-8-8s-8,3.589-8,8 S5.589,18,10,18z M34,10c0-2.206,1.794-4,4-4s4,1.794,4,4s-1.794,4-4,4h-4V10z M10,6c2.206,0,4,1.794,4,4v4h-4c-2.206,0-4-1.794-4-4 S7.794,6,10,6z"/><path fill="#000" d="M38,30h-4V20h-4v10H18V20h-4v10h-4c-4.411,0-8,3.589-8,8s3.589,8,8,8s8-3.589,8-8v-2h-4v2 c0,2.206-1.794,4-4,4s-4-1.794-4-4s1.794-4,4-4h28c2.206,0,4,1.794,4,4s-1.794,4-4,4s-4-1.794-4-4v-2h-4v2c0,4.411,3.589,8,8,8 s8-3.589,8-8S42.411,30,38,30z"/></g></svg>