<svg xmlns="http://www.w3.org/2000/svg" viewBox="0 0 48 48"><title>decision process</title><g class="nc-icon-wrapper" fill="#000000"><path d="M14,16a1,1,0,0,1-.515-.143l-10-6a1,1,0,0,1,0-1.714l10-6a1,1,0,0,1,1.03,0l10,6a1,1,0,0,1,0,1.714l-10,6A1,1,0,0,1,14,16Z" fill="#000000"/><path d="M45,30H29a1,1,0,0,1-1-1V19a1,1,0,0,1,1-1H45a1,1,0,0,1,1,1V29A1,1,0,0,1,45,30Z" data-color="color-2"/><path d="M18,46H10a6,6,0,0,1,0-12h8a6,6,0,0,1,0,12Z" fill="#000000"/><path d="M36,32v7H26v2H37a1,1,0,0,0,1-1V32Z" fill="#000000"/><rect x="13" y="18" width="2" height="14" fill="#000000"/><path d="M37,8H27v2h9v6h2V9A1,1,0,0,0,37,8Z" fill="#000000"/></g></svg>