<svg xmlns="http://www.w3.org/2000/svg" viewBox="0 0 48 48"><title>decision process</title><g fill="#000" class="nc-icon-wrapper"><path fill="#000" d="M14,16a1,1,0,0,1-.515-.143l-10-6a1,1,0,0,1,0-1.714l10-6a1,1,0,0,1,1.03,0l10,6a1,1,0,0,1,0,1.714l-10,6A1,1,0,0,1,14,16Z"/><path d="M45,30H29a1,1,0,0,1-1-1V19a1,1,0,0,1,1-1H45a1,1,0,0,1,1,1V29A1,1,0,0,1,45,30Z" data-color="color-2"/><path fill="#000" d="M18,46H10a6,6,0,0,1,0-12h8a6,6,0,0,1,0,12Z"/><path fill="#000" d="M36,32v7H26v2H37a1,1,0,0,0,1-1V32Z"/><rect width="2" height="14" x="13" y="18" fill="#000"/><path fill="#000" d="M37,8H27v2h9v6h2V9A1,1,0,0,0,37,8Z"/></g></svg>