<svg xmlns="http://www.w3.org/2000/svg" viewBox="0 0 48 48"><title>form</title><g class="nc-icon-wrapper" fill="#000000"><path data-color="color-2" d="M43,47H24c-0.552,0-1-0.448-1-1v-8c0-0.552,0.448-1,1-1h19c0.552,0,1,0.448,1,1v8 C44,46.552,43.552,47,43,47z"/> <path fill="#000000" d="M43,33H5c-0.552,0-1-0.448-1-1V14c0-0.552,0.448-1,1-1h38c0.552,0,1,0.448,1,1v18C44,32.552,43.552,33,43,33 z"/> <path fill="#000000" d="M43,9H5C4.448,9,4,8.552,4,8V2c0-0.552,0.448-1,1-1h38c0.552,0,1,0.448,1,1v6C44,8.552,43.552,9,43,9z"/></g></svg>