<svg xmlns="http://www.w3.org/2000/svg" viewBox="0 0 48 48"><title>info</title><g fill="#000" class="nc-icon-wrapper"><path fill="#000" d="M29.726,41.807l-.439,1.875A38.945,38.945,0,0,1,24.98,45.19a11.05,11.05,0,0,1-2.754.425A4.668,4.668,0,0,1,18.71,44.4a4.165,4.165,0,0,1-1.171-3.006,8.95,8.95,0,0,1,.117-1.408q.116-.734.381-1.847l3.1-12.465q.234-1.028.453-2.2a11.082,11.082,0,0,0,.22-1.994,3.173,3.173,0,0,0-.542-2.185,3.211,3.211,0,0,0-2.207-.543,9.508,9.508,0,0,0-1.711.2q-1.066.206-1.623.352l.44-1.875a28.714,28.714,0,0,1,4.1-1.524,11.569,11.569,0,0,1,2.87-.5,4.615,4.615,0,0,1,3.485,1.144,4.3,4.3,0,0,1,1.084,3.08,12.145,12.145,0,0,1-.117,1.437,15.134,15.134,0,0,1-.352,1.818L24.118,35.354q-.293,1.143-.51,2.244a9.6,9.6,0,0,0-.218,1.8,2.862,2.862,0,0,0,.744,2.288,3.774,3.774,0,0,0,2.409.616,12.22,12.22,0,0,0,1.591-.147A8.1,8.1,0,0,0,29.726,41.807Z"/><circle cx="28" cy="6" r="4" data-color="color-2"/></g></svg>