<svg xmlns="http://www.w3.org/2000/svg" viewBox="0 0 48 48"><title>layers</title><g class="nc-icon-wrapper" fill="#000000"><path data-color="color-2" d="M21,12v-2H9V1c0-0.552-0.448-1-1-1S7,0.448,7,1v36c0,0.552,0.448,1,1,1h13v-2H9V12H21z"/> <path fill="#000000" d="M40,48H24c-0.552,0-1-0.447-1-1V27c0-0.553,0.448-1,1-1h11c0.265,0,0.52,0.105,0.707,0.293l5,5 C40.895,31.48,41,31.734,41,32v15C41,47.553,40.552,48,40,48z"/> <path fill="#000000" d="M40,22H24c-0.552,0-1-0.447-1-1V1c0-0.553,0.448-1,1-1h11c0.265,0,0.52,0.105,0.707,0.293l5,5 C40.895,5.48,41,5.734,41,6v15C41,21.553,40.552,22,40,22z"/></g></svg>