<svg xmlns="http://www.w3.org/2000/svg" viewBox="0 0 48 48"><title>list numbers</title><g class="nc-icon-wrapper" fill="#000000"><path data-color="color-2" d="M9.518,11.763l-1.477-.126c-.27-.018-.288-.072-.288-.36V2.814H3.432l-.2,1.477L4.8,4.615c.181.054.234.162.234.378v6.284c0,.27-.036.342-.288.36L3.2,11.763v1.423H9.518Z"/> <path data-color="color-2" d="M5.989,20.624c.954,0,1.278.486,1.278,1.153,0,1.026-.774,1.746-2.593,3.511L2.261,27.646v1.675H10.58V25.936H8.672L8.42,27.358c-.037.181-.109.217-.289.217H5.484l2.035-1.946C8.834,24.37,10,23.253,10,21.56s-.991-2.881-3.782-2.881c-1.89,0-4.069.469-4.087,3.331l2.449.217C4.584,20.949,5,20.624,5.989,20.624Z"/> <path data-color="color-2" d="M8.338,39.8V39.73a2.819,2.819,0,0,0,2.071-2.809c0-1.926-1.062-2.989-3.835-2.989-1.89,0-4.033.486-4.033,3.331l2.467.217c0-1.278.468-1.6,1.439-1.6,1.009,0,1.315.558,1.315,1.243,0,1.152-.7,1.782-2,1.944l-.883.108v1.8a7.367,7.367,0,0,1,1.333-.126c1.116,0,1.8.45,1.8,1.549,0,1.261-.865,1.62-1.873,1.62a3.594,3.594,0,0,1-2.7-1.187L2,44.412a5.945,5.945,0,0,0,4.357,1.656c2.576,0,4.358-1.116,4.358-3.493A2.541,2.541,0,0,0,8.338,39.8Z"/> <path d="M46,9H16a1,1,0,0,1,0-2H46a1,1,0,0,1,0,2Z" fill="#000000"/> <path d="M32,25H16a1,1,0,0,1,0-2H32a1,1,0,0,1,0,2Z" fill="#000000"/> <path d="M46,41H16a1,1,0,0,1,0-2H46a1,1,0,0,1,0,2Z" fill="#000000"/></g></svg>