<svg xmlns="http://www.w3.org/2000/svg" viewBox="0 0 48 48"><title>notepad</title><g fill="#000" class="nc-icon-wrapper"><path fill="#000" d="M42,2h-6v4h4v37H8V6h4V2H6C4.896,2,4,2.896,4,4v41c0,1.104,0.896,2,2,2h36c1.104,0,2-0.896,2-2V4 C44,2.896,43.104,2,42,2z"/><path fill="#000" d="M15,12h5c0.553,0,1-0.448,1-1c0-1.654,1.346-3,3-3s3,1.346,3,3c0,0.552,0.447,1,1,1h5c0.553,0,1-0.448,1-1V2 c0-0.552-0.447-1-1-1H15c-0.553,0-1,0.448-1,1v9C14,11.552,14.447,12,15,12z"/><path d="M13,20h22c0.553,0,1-0.448,1-1s-0.447-1-1-1H13c-0.553,0-1,0.448-1,1S12.447,20,13,20z" data-color="color-2"/><path d="M35,26H13c-0.553,0-1,0.448-1,1s0.447,1,1,1h22c0.553,0,1-0.448,1-1S35.553,26,35,26z" data-color="color-2"/><path d="M35,34H13c-0.553,0-1,0.448-1,1s0.447,1,1,1h22c0.553,0,1-0.448,1-1S35.553,34,35,34z" data-color="color-2"/></g></svg>