<svg xmlns="http://www.w3.org/2000/svg" viewBox="0 0 48 48"><title>opening times</title><g fill="#000" class="nc-icon-wrapper"><path fill="#000" d="M13,10a1,1,0,0,1-1-1V2a1,1,0,0,1,2,0V9A1,1,0,0,1,13,10Z"/><path fill="#000" d="M35,10a1,1,0,0,1-1-1V2a1,1,0,0,1,2,0V9A1,1,0,0,1,35,10Z"/><path fill="#000" d="M27.425,41H5a1,1,0,0,1-1-1V17a1,1,0,0,1,1-1H43a1,1,0,0,1,1,1V28.787a11.058,11.058,0,0,1,2,1.679V7a2,2,0,0,0-2-2H38V9a3,3,0,0,1-6,0V5H16V9a3,3,0,0,1-6,0V5H4A2,2,0,0,0,2,7V41a2,2,0,0,0,2,2H28.21A10.893,10.893,0,0,1,27.425,41Z"/><path d="M38,47a9,9,0,1,0-9-9A9,9,0,0,0,38,47ZM37,33a1,1,0,0,1,2,0v4h4a1,1,0,0,1,0,2H38a1,1,0,0,1-1-1Z" data-color="color-2"/></g></svg>