<svg enable-background="new 0 0 560 560" viewBox="0 0 560 560" xmlns="http://www.w3.org/2000/svg"><path d="m0 0h560v560h-560z" fill="#63f"/><path d="m0 0h560v560h-560z" fill="#999"/><path d="m91 92h358v358h-358z" fill="none"/><g fill="#b7b7b7"><ellipse cx="242" cy="213.9" rx="28" ry="27.9"/><path d="m397.5 368.4-76.1-135.9c-.6-1.1-1.8-1.9-3.1-1.9-1.3-.1-2.5.5-3.3 1.5l-50.8 69.3 25.8 36.2-68.5-53.4c-.8-.7-1.9-.9-3-.8-1.1.2-2 .8-2.6 1.7l-53.3 83c-.9 1.5-.8 3.5.6 4.8.7.7 1.7 1 2.7 1h228.2c.8 0 1.6-.2 2.2-.6 1.7-1.1 2.1-3.3 1.2-4.9z"/></g></svg>