<svg xmlns="http://www.w3.org/2000/svg" viewBox="0 0 48 48"><title>slider</title><g class="nc-icon-wrapper" fill="#000000"><path fill="#000000" d="M45,35H3c-1.105,0-2-0.895-2-2V3c0-1.105,0.895-2,2-2h42c1.105,0,2,0.895,2,2v30C47,34.105,46.105,35,45,35z "/> <path data-color="color-2" d="M10,46c-1.654,0-3-1.345-3-3s1.346-3,3-3s3,1.345,3,3S11.654,46,10,46z"/> <path data-color="color-2" d="M37,46c-1.654,0-3-1.345-3-3s1.346-3,3-3s3,1.345,3,3S38.654,46,37,46z"/> <path data-color="color-2" d="M24,47c-2.205,0-4-1.795-4-4s1.795-4,4-4s4,1.795,4,4S26.205,47,24,47z"/></g></svg>