<svg xmlns="http://www.w3.org/2000/svg" viewBox="0 0 48 48"><title>sun cloud</title><g fill="#000" class="nc-icon-wrapper"><path fill="#000" d="M38,29c-1.435,0-2.831,0.342-4.099,0.998C31.963,25.767,27.724,23,23,23c-4.444,0-8.502,2.462-10.578,6.344 C11.623,29.115,10.812,29,10,29c-4.962,0-9,4.037-9,9s4.038,9,9,9h28c4.962,0,9-4.037,9-9S42.962,29,38,29z"/><path d="M11.447,27.1C14.039,23.304,18.34,21,23,21c4.809,0,9.259,2.491,11.802,6.48 c0.596-0.182,1.207-0.308,1.825-0.387C36.871,26.093,37,25.059,37,24c0-7.168-5.832-13-13-13s-13,5.832-13,13 c0,1.045,0.13,2.085,0.376,3.095C11.4,27.098,11.424,27.096,11.447,27.1z" data-color="color-2"/><path d="M24,6c-0.552,0-1-0.447-1-1V2c0-0.553,0.448-1,1-1s1,0.447,1,1v3C25,5.553,24.552,6,24,6z" data-color="color-2"/><path d="M37.435,11.565c-0.256,0-0.512-0.098-0.707-0.293c-0.391-0.391-0.391-1.023,0-1.414 l2.121-2.122c0.39-0.391,1.023-0.391,1.414,0s0.391,1.023,0,1.414l-2.121,2.122C37.947,11.468,37.691,11.565,37.435,11.565z" data-color="color-2"/><path d="M46,25h-3c-0.552,0-1-0.447-1-1s0.448-1,1-1h3c0.552,0,1,0.447,1,1S46.552,25,46,25z" data-color="color-2"/><path d="M10.565,11.565c-0.256,0-0.512-0.098-0.707-0.293L7.737,9.15 c-0.391-0.391-0.391-1.023,0-1.414s1.024-0.391,1.414,0l2.121,2.122c0.391,0.391,0.391,1.023,0,1.414 C11.077,11.468,10.821,11.565,10.565,11.565z" data-color="color-2"/><path d="M5,25H2c-0.552,0-1-0.447-1-1s0.448-1,1-1h3c0.552,0,1,0.447,1,1S5.552,25,5,25z" data-color="color-2"/></g></svg>