<svg xmlns="http://www.w3.org/2000/svg" viewBox="0 0 48 48"><title>sun cloud snow 55</title><g fill="#000" class="nc-icon-wrapper"><path d="M23,12c5.376,0,10.138,2.991,12.478,7.644C36.598,19.219,37.786,19,39,19 c0.316,0,0.629,0.019,0.938,0.048C39.975,18.699,40,18.35,40,18c0-5.514-4.486-10-10-10c-3.236,0-6.196,1.554-8.047,4.059 C22.301,12.033,22.647,12,23,12z" data-color="color-2"/><path d="M30,5c-0.553,0-1-0.447-1-1V2c0-0.553,0.447-1,1-1s1,0.447,1,1v2C31,4.553,30.553,5,30,5z" data-color="color-2"/><path d="M39.899,9.101c-0.256,0-0.512-0.098-0.707-0.293c-0.391-0.391-0.391-1.023,0-1.414 l1.414-1.414c0.391-0.391,1.023-0.391,1.414,0s0.391,1.023,0,1.414l-1.414,1.414C40.411,9.003,40.155,9.101,39.899,9.101z" data-color="color-2"/><path d="M20.101,9.101c-0.256,0-0.512-0.098-0.707-0.293l-1.414-1.414 c-0.391-0.391-0.391-1.023,0-1.414s1.023-0.391,1.414,0l1.414,1.414c0.391,0.391,0.391,1.023,0,1.414 C20.612,9.003,20.356,9.101,20.101,9.101z" data-color="color-2"/><path fill="#000" d="M39,21c-1.633,0-3.223,0.509-4.551,1.43C32.92,17.456,28.347,14,23,14c-4.095,0-7.88,2.083-10.082,5.491 C11.977,19.165,10.999,19,10,19c-4.963,0-9,4.037-9,9s4.037,9,9,9h6.309c-0.643-0.431-1.082-1.022-1.27-1.726 c-0.207-0.773-0.1-1.58,0.3-2.273c0.534-0.926,1.53-1.501,2.6-1.501c0.525,0,1.043,0.139,1.5,0.402 c0.22,0.127,0.387,0.174,0.556,0.174c0.483,0,1.005-0.385,1.005-1.005C21,29.346,22.346,28,24,28s3,1.346,3,3 c0,0.356,0.101,0.597,0.299,0.786c0.192,0.185,0.449,0.29,0.706,0.29c0.169,0,0.336-0.047,0.496-0.139 c0.517-0.299,1.036-0.438,1.561-0.438c1.07,0,2.066,0.575,2.6,1.501c0.4,0.694,0.507,1.503,0.298,2.278 c-0.193,0.718-0.643,1.317-1.26,1.721H39c4.411,0,8-3.589,8-8S43.411,21,39,21z"/><path d="M30.562,40.634L30.5,40.598c-2-1.155-2-4.041,0-5.196l0.062-0.036 c0.477-0.276,0.643-0.887,0.366-1.366c-0.276-0.478-0.888-0.642-1.366-0.366L29.5,33.67c-2,1.155-4.5-0.289-4.5-2.598V31 c0-0.552-0.448-1-1-1c-0.552,0-1,0.448-1,1v0.072c0,2.309-2.5,3.753-4.5,2.598l-0.062-0.036c-0.478-0.276-1.09-0.112-1.366,0.366 c-0.275,0.477-0.113,1.09,0.366,1.366l0.062,0.036c2,1.155,2,4.041,0,5.196l-0.062,0.036c-0.477,0.276-0.643,0.887-0.366,1.366 c0.276,0.478,0.888,0.642,1.366,0.366L18.5,42.33c2-1.155,4.5,0.289,4.5,2.598V45c0,0.552,0.448,1,1,1c0.552,0,1-0.448,1-1v-0.072 c0-2.309,2.5-3.753,4.5-2.598l0.062,0.036c0.478,0.276,1.09,0.112,1.366-0.366C31.204,41.523,31.041,40.91,30.562,40.634z" data-color="color-2"/></g></svg>