<svg xmlns="http://www.w3.org/2000/svg" viewBox="0 0 48 48"><title>sun cloud snow 54</title><g fill="#000" class="nc-icon-wrapper"><path d="M23,12c5.376,0,10.138,2.991,12.478,7.644C36.598,19.219,37.786,19,39,19 c0.316,0,0.629,0.019,0.938,0.048C39.975,18.699,40,18.35,40,18c0-5.514-4.486-10-10-10c-3.236,0-6.196,1.554-8.047,4.059 C22.301,12.033,22.647,12,23,12z" data-color="color-2"/><path fill="#000" d="M39,21c-1.633,0-3.223,0.509-4.551,1.43C32.92,17.456,28.347,14,23,14c-4.095,0-7.88,2.083-10.082,5.491 C11.977,19.165,10.999,19,10,19c-4.963,0-9,4.037-9,9s4.037,9,9,9h29c4.411,0,8-3.589,8-8S43.411,21,39,21z"/><path d="M30,5c-0.553,0-1-0.447-1-1V2c0-0.553,0.447-1,1-1s1,0.447,1,1v2C31,4.553,30.553,5,30,5z" data-color="color-2"/><path d="M39.899,9.101c-0.256,0-0.512-0.098-0.707-0.293c-0.391-0.391-0.391-1.023,0-1.414 l1.414-1.414c0.391-0.391,1.023-0.391,1.414,0s0.391,1.023,0,1.414l-1.414,1.414C40.411,9.003,40.155,9.101,39.899,9.101z" data-color="color-2"/><path d="M20.101,9.101c-0.256,0-0.512-0.098-0.707-0.293l-1.414-1.414 c-0.391-0.391-0.391-1.023,0-1.414s1.023-0.391,1.414,0l1.414,1.414c0.391,0.391,0.391,1.023,0,1.414 C20.612,9.003,20.356,9.101,20.101,9.101z" data-color="color-2"/><path d="M24,47c-0.552,0-1-0.447-1-1v-2c0-0.553,0.448-1,1-1s1,0.447,1,1v2 C25,46.553,24.552,47,24,47z" data-color="color-2"/><path d="M17,43c-0.552,0-1-0.447-1-1v-2c0-0.553,0.448-1,1-1s1,0.447,1,1v2 C18,42.553,17.552,43,17,43z" data-color="color-2"/><path d="M31,43c-0.552,0-1-0.447-1-1v-2c0-0.553,0.448-1,1-1s1,0.447,1,1v2 C32,42.553,31.552,43,31,43z" data-color="color-2"/></g></svg>