<svg xmlns="http://www.w3.org/2000/svg" viewBox="0 0 48 48"><title>sun fog 29</title><g fill="#000" class="nc-icon-wrapper"><path fill="#000" d="M46,26h-3c-0.553,0-1,0.448-1,1s0.447,1,1,1h3c0.553,0,1-0.448,1-1S46.553,26,46,26z"/><path fill="#000" d="M38.849,10.737l-2.121,2.121c-0.391,0.391-0.39,1.024,0,1.414c0.39,0.39,1.023,0.391,1.414,0l2.121-2.121 c0.391-0.391,0.39-1.024,0-1.414C39.873,10.346,39.24,10.346,38.849,10.737z"/><path fill="#000" d="M23,5v3c0,0.553,0.448,1,1,1s1-0.447,1-1V5c0-0.553-0.448-1-1-1S23,4.447,23,5z"/><path fill="#000" d="M7.737,12.151l2.121,2.121c0.391,0.391,1.024,0.39,1.414,0c0.39-0.39,0.391-1.023,0-1.414l-2.121-2.121 c-0.391-0.391-1.024-0.39-1.414,0C7.346,11.127,7.346,11.76,7.737,12.151z"/><path fill="#000" d="M2,28h3c0.553,0,1-0.448,1-1s-0.447-1-1-1H2c-0.553,0-1,0.448-1,1S1.447,28,2,28z"/><path d="M46,33H2c-0.553,0-1,0.448-1,1s0.447,1,1,1h44c0.553,0,1-0.448,1-1S46.553,33,46,33z" data-color="color-2"/><path d="M40,40H8c-0.553,0-1,0.448-1,1s0.447,1,1,1h32c0.553,0,1-0.448,1-1S40.553,40,40,40z" data-color="color-2"/><path fill="#000" d="M37.95,28c0.023-0.332,0.05-0.662,0.05-1c0-7.732-6.268-14-14-14s-14,6.268-14,14 c0,0.338,0.027,0.668,0.05,1H37.95z"/></g></svg>