<svg xmlns="http://www.w3.org/2000/svg" viewBox="0 0 48 48"><title>sun fog 30</title><g fill="#000" class="nc-icon-wrapper"><path d="M46,30H2c-0.6,0-1,0.4-1,1s0.4,1,1,1h44c0.6,0,1-0.4,1-1S46.6,30,46,30z" data-color="color-2"/><path d="M40,37H8c-0.6,0-1,0.4-1,1s0.4,1,1,1h32c0.6,0,1-0.4,1-1S40.6,37,40,37z" data-color="color-2"/><path d="M34,44H14c-0.6,0-1,0.4-1,1s0.4,1,1,1h20c0.6,0,1-0.4,1-1S34.6,44,34,44z" data-color="color-2"/><path fill="#000" d="M4,24h40c0,0,0,0,0,0c0.6,0,1-0.4,1-1c0-0.1,0-0.1,0-0.2C44.9,11.3,35.5,2,24,2C12.4,2,3,11.4,3,23 C3,23.6,3.4,24,4,24z"/></g></svg>