<svg xmlns="http://www.w3.org/2000/svg" viewBox="0 0 48 48"><title>time alarm</title><g class="nc-icon-wrapper" fill="#000000"><path data-color="color-2" d="M21.6,5.148A10.992,10.992,0,0,0,4.32,18.741,21.032,21.032,0,0,1,21.6,5.148Z"/><path data-color="color-2" d="M43.68,18.741A10.992,10.992,0,0,0,26.4,5.148,21.032,21.032,0,0,1,43.68,18.741Z"/><path d="M38.656,38.078a19,19,0,1,0-29.312,0l-3.99,5.787a2,2,0,1,0,3.292,2.27L12.253,40.9a18.893,18.893,0,0,0,23.494,0l3.607,5.231a2,2,0,0,0,3.292-2.27ZM34,28H24a1,1,0,0,1-1-1V17a1,1,0,0,1,2,0v9h9a1,1,0,0,1,0,2Z" fill="#000000"/></g></svg>