<svg xmlns="http://www.w3.org/2000/svg" viewBox="0 0 48 48"><title>Upload, interface, uploading</title><g fill="#000" class="nc-icon-wrapper"><path fill="#000" d="M38 6H10a4 4 0 0 0-4 4v28a4 4 0 0 0 4 4h28a4 4 0 0 0 4-4V10a4 4 0 0 0-4-4zM18.38 16.22l5-4a.967.967 0 0 1 1.24 0l5 4a.991.991 0 0 1 .16 1.4.956.956 0 0 1-.78.38 1.02 1.02 0 0 1-.62-.22L25 15.08V27a1 1 0 0 1-2 0V15.08l-3.38 2.7a.996.996 0 0 1-1.24-1.56zM36 35a.99.99 0 0 1-1 1H13a.99.99 0 0 1-1-1v-8a1 1 0 0 1 2 0v7h20v-7a1 1 0 0 1 2 0z"/></g></svg>