<svg xmlns="http://www.w3.org/2000/svg" viewBox="0 0 48 48"><title>wifi</title><g class="nc-icon-wrapper" fill="#000000"><circle data-color="color-2" cx="24" cy="36" r="4"/> <path fill="#000000" d="M35.313,27.515l-1.414-1.415C31.255,23.457,27.739,22,24,22c-3.74,0-7.255,1.456-9.899,4.101l-1.415,1.415 l-2.829-2.829l1.414-1.414C14.671,19.873,19.192,18,24,18c4.808,0,9.328,1.873,12.728,5.272l1.415,1.414L35.313,27.515z"/> <path fill="#000000" d="M43.799,19.03l-1.414-1.415C37.474,12.705,30.945,10,24,10s-13.474,2.705-18.385,7.615L4.201,19.03 l-2.829-2.829l1.415-1.414C8.453,9.121,15.986,6,24,6s15.547,3.121,21.213,8.787l1.415,1.414L43.799,19.03z"/></g></svg>